# xmcd
#
# Track frame offsets: 
#        150
#        4200
#        19783
#        35848
#        49910
#        68863
#        87998
#        93183
#        111840
#        124323
#        170460
#        194248
#        213765
#
# Disc length: 3216 seconds
#
# Revision: 0
# Processed by: cddbd v1.5.2PL0 Copyright (c) Steve Scherf et al.
# Submitted via: ExactAudioCopy v1.0b3
#
DISCID=b80c8e0d
DTITLE=Muleskinner Jones - Alcohol Tabacco Raygun?
DYEAR=2006
DGENRE=Country
TTITLE0=Mr. Jones Last Song
TTITLE1=Death In Dixie
TTITLE2=Drinking To Get Drunk
TTITLE3=Mr. Jones vs Sun City
TTITLE4=Mr. Jones Skips Town
TTITLE5=Mr. Jones Gets Blissed
TTITLE6=Alcohol Tobacco Raygun
TTITLE7=Blood And Muskets (At Wounded Knee)
TTITLE8=Satan Is My Bitch
TTITLE9=Her Desert Yard
TTITLE10=Men With Knives
TTITLE11=Blood And Muskets (Reprise)
TTITLE12=Between God And The Bottle
EXTD=
EXTT0=
EXTT1=
EXTT2=
EXTT3=
EXTT4=
EXTT5=
EXTT6=
EXTT7=
EXTT8=
EXTT9=
EXTT10=
EXTT11=
EXTT12=
PLAYORDER=
